<svg xmlns="http://www.w3.org/2000/svg" version="1.1" xmlns:xlink="http://www.w3.org/1999/xlink" xmlns:svgjs="http://svgjs.dev/svgjs" width="2000" height="1500" viewBox="0 0 2000 1500"><rect width="2000" height="1500" fill="#f5ff00"></rect><g transform="matrix(0.75,0,0,0.75,249.78667664670684,-0.21332335329350371)"><svg viewBox="0 0 334 334" data-background-color="#f5ff00" preserveAspectRatio="xMidYMid meet" height="2000" width="2000" xmlns="http://www.w3.org/2000/svg" xmlns:xlink="http://www.w3.org/1999/xlink"><g id="tight-bounds" transform="matrix(1,0,0,1,0.04749999999998522,0.04750000000001364)"><svg viewBox="0 0 333.90454557049503 333.90454557049503" height="333.90454557049503" width="333.90454557049503"><g><svg></svg></g><g><svg viewBox="0 0 333.90454557049503 333.90454557049503" height="333.90454557049503" width="333.90454557049503"><g><path d="M0 166.952c0-92.205 74.747-166.952 166.952-166.952 92.205 0 166.952 74.747 166.953 166.952 0 92.205-74.747 166.952-166.953 166.953-92.205 0-166.952-74.747-166.952-166.953zM166.952 323.814c86.633 0 156.862-70.23 156.862-156.862 0-86.633-70.23-156.862-156.862-156.862-86.633 0-156.862 70.23-156.862 156.862 0 86.633 70.23 156.862 156.862 156.862z" data-fill-palette-color="tertiary" fill="#000000" stroke="transparent"></path><ellipse rx="160.27418187383762" ry="160.27418187383762" cx="166.95227278524752" cy="166.95227278524752" fill="#000000" stroke="transparent" stroke-width="0" fill-opacity="1" data-fill-palette-color="tertiary"></ellipse></g><g transform="matrix(1,0,0,1,126.79768013023539,71.17305217166896)"><svg viewBox="0 0 80.30918531002425 191.55844122715712" height="191.55844122715712" width="80.30918531002425"><g><svg viewBox="0 0 80.30918531002425 191.55844122715712" height="191.55844122715712" width="80.30918531002425"><g><svg viewBox="0 0 137.49395280058127 327.9590892992426" height="191.55844122715712" width="80.30918531002425"><g transform="matrix(1,0,0,1,0,136.40064807208543)"><svg viewBox="0 0 137.49395280058127 191.55844122715712" height="191.55844122715712" width="137.49395280058127"><g id="textblocktransform"><svg viewBox="0 0 137.49395280058127 191.55844122715712" height="191.55844122715712" width="137.49395280058127" id="textblock"><g><svg viewBox="0 0 137.49395280058127 191.55844122715712" height="191.55844122715712" width="137.49395280058127"><g transform="matrix(1,0,0,1,0,0)"><svg width="137.49395280058127" viewBox="3.4000000953674316 -34.900001525878906 25.05000114440918 34.900001525878906" height="191.55844122715712" data-palette-color="#f5ff00"><path d="M10.55-13.2L10.55 0 3.4 0 3.4-34.9 18.5-34.9Q23.2-34.9 25.65-31.95 28.1-29 28.1-24.05L28.1-24.05Q28.1-20.2 26.65-17.55 25.2-14.9 22.35-13.85L22.35-13.85 28.45 0 20.7 0 15.3-13.2 10.55-13.2ZM10.55-19.15L17.6-19.15Q19.05-19.15 19.88-19.88 20.7-20.6 20.7-22.4L20.7-22.4 20.7-25.4Q20.7-27.2 19.88-27.93 19.05-28.65 17.6-28.65L17.6-28.65 10.55-28.65 10.55-19.15Z" opacity="1" transform="matrix(1,0,0,1,0,0)" fill="#f5ff00" class="wordmark-text-0" data-fill-palette-color="quaternary" id="text-0"></path></svg></g></svg></g></svg></g></svg></g><g transform="matrix(1,0,0,1,26.26134498491102,0)"><svg viewBox="0 0 84.97126283075923 91.17829750094309" height="91.17829750094309" width="84.97126283075923"><g><svg xmlns="http://www.w3.org/2000/svg" xmlns:xlink="http://www.w3.org/1999/xlink" version="1.1" x="0" y="0" viewBox="3.403778553009033 0 93.19242095947266 100" style="enable-background:new 0 0 100 100;" xml:space="preserve" height="91.17829750094309" width="84.97126283075923" class="icon-icon-0" data-fill-palette-color="quaternary" id="icon-0"><g fill="#f5ff00" data-fill-palette-color="quaternary"><path d="M40.869 42.344c-0.93 0-1.683-0.754-1.683-1.684v-0.627c0-0.93 0.753-1.684 1.683-1.684 0.93 0 1.683 0.754 1.683 1.684v0.627C42.552 41.59 41.799 42.344 40.869 42.344z" fill="#f5ff00" data-fill-palette-color="quaternary"></path><path d="M35.334 40.347c-0.151 0-0.309-0.021-0.462-0.065-0.895-0.256-1.412-1.187-1.156-2.081 0.208-0.73 0.462-1.553 0.763-2.387-0.261-3.234 0.431-5.778 2.061-7.568 1.787-1.963 4.567-2.912 8.511-2.909 0.928 0.009 1.675 0.769 1.667 1.699-0.008 0.925-0.759 1.669-1.683 1.669-0.041-0.001-0.122-0.001-0.183-0.001-2.77 0-4.728 0.608-5.823 1.809-1.022 1.124-1.414 2.924-1.164 5.353 0.026 0.259-0.008 0.519-0.099 0.763-0.326 0.868-0.596 1.737-0.814 2.496C36.742 39.865 36.068 40.347 35.334 40.347z" fill="#f5ff00" data-fill-palette-color="quaternary"></path><path d="M49.828 25.053c-4.819 0-6.818-6.523-6.818-10.016 0-3.612 2.874-6.135 6.991-6.135 0.93 0 1.683 0.754 1.683 1.684s-0.753 1.684-1.683 1.684c-0.851 0-3.625 0.2-3.625 2.767 0 2.615 1.482 6.648 3.452 6.648 0.93 0 1.683 0.754 1.683 1.684C51.511 24.299 50.758 25.053 49.828 25.053z" fill="#f5ff00" data-fill-palette-color="quaternary"></path><path d="M45.033 28.705c-0.242 0-0.488-0.053-0.722-0.164-0.839-0.399-1.195-1.404-0.796-2.243 0.493-1.036 1.085-2.607 1.864-4.944 0.293-0.883 1.246-1.359 2.129-1.066 0.881 0.294 1.359 1.247 1.064 2.13-0.834 2.504-1.455 4.147-2.017 5.327C46.268 28.35 45.662 28.705 45.033 28.705z" fill="#f5ff00" data-fill-palette-color="quaternary"></path><path d="M50.003 91.65c-0.022 0-0.041 0-0.063 0-4.986-0.181-9.189-0.72-12.852-1.649-0.735-0.187-1.254-0.841-1.268-1.601-0.053-2.817 0.077-6.026 0.403-10.097 0.077-0.926 0.863-1.575 1.815-1.543 0.926 0.075 1.616 0.887 1.543 1.814-0.269 3.336-0.401 6.065-0.405 8.46 3.134 0.69 6.712 1.101 10.886 1.25 0.928 0.033 1.655 0.814 1.622 1.744C51.651 90.937 50.903 91.65 50.003 91.65z" fill="#f5ff00" data-fill-palette-color="quaternary"></path><path d="M45.485 99.998c-1.571 0-2.77-0.497-3.588-1.48-1.467-1.76-1.414-4.667 0.173-9.426 0.293-0.883 1.244-1.357 2.129-1.063 0.881 0.293 1.359 1.246 1.064 2.129-1.618 4.854-0.932 6.022-0.779 6.207 0.214 0.254 0.867 0.336 1.744 0.21 0.446-0.071 0.641-0.261 0.767-0.438 0.352-0.492 0.84-1.919 0.147-5.942-0.157-0.916 0.458-1.787 1.375-1.944 0.918-0.155 1.785 0.458 1.944 1.374 0.704 4.099 0.474 6.793-0.729 8.472-0.702 0.981-1.74 1.606-3.004 1.809C46.291 99.967 45.876 99.998 45.485 99.998z" fill="#f5ff00" data-fill-palette-color="quaternary"></path><path d="M10.085 59.417c-2.192 0-4.19-0.755-5.847-1.724-0.545-0.317-0.865-0.914-0.832-1.543 0.033-0.631 0.417-1.187 0.993-1.447 7.644-3.421 13.98-12.623 18.837-27.353 1.522-4.67 4.711-7.949 8.528-8.762 3.319-0.705 6.604 0.53 9.27 3.482 0.623 0.689 0.57 1.754-0.12 2.377-0.688 0.624-1.752 0.57-2.377-0.12-1.854-2.051-3.944-2.905-6.071-2.446-2.591 0.552-4.901 3.049-6.032 6.517C21.875 42.233 16.162 51.305 9.045 55.981c2.43 0.383 5.422-0.519 8.778-5.126 0.545-0.751 1.598-0.92 2.351-0.369 0.751 0.547 0.918 1.6 0.37 2.351C16.936 57.793 13.299 59.417 10.085 59.417z" fill="#f5ff00" data-fill-palette-color="quaternary"></path><path d="M16.769 60.896c-2.131 0-4.465-0.543-6.981-1.624C8.933 58.904 8.539 57.913 8.905 57.06c0.37-0.855 1.362-1.246 2.212-0.883 3.588 1.545 6.576 1.764 8.88 0.657 0.838-0.401 1.844-0.047 2.246 0.79 0.403 0.838 0.049 1.844-0.791 2.245C20.025 60.554 18.46 60.896 16.769 60.896z" fill="#f5ff00" data-fill-palette-color="quaternary"></path><path d="M57.36 53.7c-0.258 0-0.521-0.059-0.767-0.185-0.826-0.425-1.154-1.439-0.729-2.267 1.068-2.082 1.581-5.849 1.527-11.198-0.01-0.929 0.735-1.691 1.666-1.7 0.006-0.001 0.012-0.001 0.017-0.001 0.922 0 1.675 0.743 1.683 1.668 0.061 5.983-0.56 10.16-1.897 12.769C58.561 53.366 57.971 53.7 57.36 53.7z" fill="#f5ff00" data-fill-palette-color="quaternary"></path><path d="M67.748 66.668c-1.105 0-2.363-0.34-3.739-1.272-0.303-0.204-0.529-0.501-0.649-0.845-0.633-1.838-0.775-3.853-0.423-6.007-3.551-3.132-5.528-7.027-5.884-11.589-0.071-0.927 0.621-1.737 1.549-1.809 0.91-0.08 1.738 0.621 1.809 1.547 0.309 3.981 2.082 7.215 5.42 9.889 0.505 0.403 0.733 1.062 0.588 1.691-0.389 1.689-0.403 3.242-0.041 4.628 0.924 0.499 1.608 0.46 2.155 0.248 0.415-1.903-0.065-3.38-1.487-4.609-0.356-0.309-0.566-0.749-0.581-1.217-0.1-3.02-0.971-5.534-2.666-7.691-0.346-0.442-0.45-1.028-0.276-1.563 0.898-2.745 0.444-6.596-1.348-11.447-0.09-0.242-0.122-0.5-0.097-0.756 0.25-2.429-0.142-4.23-1.164-5.353-1.117-1.224-3.134-1.828-5.99-1.808-0.006 0-0.012 0-0.016 0-0.924 0-1.675-0.744-1.683-1.669-0.008-0.93 0.739-1.69 1.667-1.699 3.908-0.005 6.724 0.946 8.511 2.909 1.63 1.79 2.322 4.335 2.061 7.57 1.819 5.043 2.314 9.127 1.504 12.44 1.661 2.375 2.611 5.143 2.825 8.246 2.163 2.188 2.782 5.035 1.791 8.277-0.116 0.381-0.366 0.71-0.7 0.926C70.08 66.22 69.016 66.668 67.748 66.668z" fill="#f5ff00" data-fill-palette-color="quaternary"></path><path d="M50.115 25.053c-0.93 0-1.683-0.754-1.683-1.684 0-0.93 0.753-1.684 1.683-1.684 1.97 0 3.452-4.033 3.452-6.648 0-2.568-2.731-2.767-3.566-2.767-0.93 0-1.683-0.754-1.683-1.684s0.753-1.684 1.683-1.684c4.081 0 6.932 2.523 6.932 6.135C56.933 18.53 54.934 25.053 50.115 25.053z" fill="#f5ff00" data-fill-palette-color="quaternary"></path><path d="M54.91 28.705c-0.631 0-1.235-0.355-1.522-0.96-0.562-1.18-1.184-2.823-2.017-5.327-0.295-0.882 0.183-1.835 1.064-2.13 0.883-0.295 1.836 0.183 2.129 1.066 0.779 2.337 1.37 3.907 1.864 4.944 0.399 0.839 0.043 1.844-0.796 2.243C55.398 28.652 55.152 28.705 54.91 28.705z" fill="#f5ff00" data-fill-palette-color="quaternary"></path><path d="M49.999 91.65c-0.9 0-1.648-0.714-1.681-1.622-0.033-0.928 0.692-1.708 1.622-1.744 4.08-0.149 7.715-0.568 10.829-1.25-0.004-9.278-1.697-20.915-5.043-34.618-0.22-0.902 0.332-1.815 1.237-2.035 0.893-0.226 1.813 0.332 2.035 1.237 3.623 14.84 5.3 26.872 5.125 36.78-0.014 0.759-0.533 1.416-1.268 1.603-3.608 0.916-7.913 1.471-12.793 1.649C50.042 91.65 50.021 91.65 49.999 91.65z" fill="#f5ff00" data-fill-palette-color="quaternary"></path><path d="M54.462 100c-0.383 0-0.788-0.031-1.215-0.09-1.286-0.21-2.316-0.838-3.016-1.819-1.211-1.701-1.449-4.39-0.749-8.466 0.157-0.916 1.02-1.528 1.944-1.374 0.916 0.157 1.532 1.028 1.375 1.944-0.686 3.995-0.187 5.436 0.173 5.942 0.126 0.177 0.319 0.37 0.778 0.444 0.847 0.12 1.49 0.041 1.713-0.22 0.155-0.185 0.847-1.351-0.732-6.217-0.287-0.883 0.197-1.832 1.082-2.119 0.877-0.297 1.834 0.199 2.119 1.081 1.547 4.762 1.581 7.668 0.108 9.419C57.22 99.507 56.019 100 54.462 100z" fill="#f5ff00" data-fill-palette-color="quaternary"></path><path d="M89.902 59.398c-3.848 0-8.242-2.298-12.483-9.618-0.466-0.804-0.191-1.834 0.614-2.3 0.806-0.466 1.834-0.191 2.3 0.613 4.038 6.968 7.66 8.32 10.587 7.878-7.15-4.681-12.85-13.75-17.354-27.572-1.158-3.473-3.496-5.976-6.101-6.522-2.112-0.438-4.209 0.404-6.059 2.45-0.625 0.69-1.687 0.744-2.377 0.12-0.69-0.623-0.743-1.688-0.12-2.377 2.66-2.944 5.951-4.179 9.248-3.488 3.828 0.802 7.044 4.079 8.606 8.763 4.803 14.735 11.139 23.936 18.834 27.358 0.58 0.258 0.965 0.818 0.997 1.451 0.033 0.635-0.293 1.233-0.844 1.547C94.056 58.67 92.064 59.398 89.902 59.398z" fill="#f5ff00" data-fill-palette-color="quaternary"></path><path d="M83.14 60.89c-1.622 0-3.116-0.315-4.474-0.944-3.22-1.492-5.629-4.74-7.161-9.653-0.277-0.889 0.218-1.832 1.105-2.108 0.897-0.282 1.832 0.218 2.108 1.105 1.239 3.967 3.041 6.525 5.363 7.601 2.239 1.036 5.182 0.796 8.753-0.718 0.853-0.358 1.842 0.039 2.208 0.895 0.362 0.857-0.039 1.844-0.895 2.208C87.605 60.351 85.264 60.89 83.14 60.89z" fill="#f5ff00" data-fill-palette-color="quaternary"></path><path d="M77.335 58.78c-0.147 0-0.299-0.022-0.451-0.063-2.143-0.594-4.089-1.374-5.788-2.32-0.812-0.45-1.105-1.476-0.652-2.288 0.452-0.814 1.475-1.109 2.288-0.653 1.467 0.814 3.165 1.494 5.053 2.017 0.897 0.248 1.421 1.176 1.172 2.073C78.75 58.291 78.074 58.78 77.335 58.78z" fill="#f5ff00" data-fill-palette-color="quaternary"></path><path d="M50.04 55.076c-0.159 0-0.318-0.002-0.477-0.006-0.928-0.02-1.665-0.79-1.646-1.72 0.02-0.916 0.769-1.646 1.683-1.645 0.118 0.002 0.291 0.004 0.438 0.003 2.288 0 4.545-0.425 6.718-1.262 0.859-0.33 1.84 0.096 2.177 0.966 0.334 0.867-0.096 1.842-0.966 2.176C55.41 54.575 52.744 55.076 50.04 55.076z" fill="#f5ff00" data-fill-palette-color="quaternary"></path><path d="M50.001 7.933c-3.857 0-8.362-1.039-8.362-3.967S46.144 0 50.001 0c3.83 0 8.303 1.039 8.303 3.966S53.831 7.933 50.001 7.933zM45.758 3.966c0.839 0.296 2.249 0.599 4.243 0.599 1.968 0 3.364-0.303 4.192-0.599C53.365 3.671 51.969 3.368 50.001 3.368 48.007 3.368 46.598 3.671 45.758 3.966z" fill="#f5ff00" data-fill-palette-color="quaternary"></path><path d="M37.332 74.644c-0.281 0-0.564-0.069-0.822-0.214-7.866-4.404-13.367-12.976-14.716-22.928-0.122-1.042-0.238-2.039-0.296-3.039-0.047-0.826 0.511-1.564 1.319-1.742 3.421-0.754 6.521-2.503 9.216-5.197 0.533-0.538 1.364-0.647 2.02-0.274 3.244 1.839 6.793 2.732 10.282 2.58 0.814-0.051 1.575 0.549 1.728 1.372 0.169 0.903 0.338 1.862 0.507 2.82 1.359 10.013-1.657 19.737-8.047 26.129C38.199 74.475 37.766 74.644 37.332 74.644zM24.973 49.64c0.049 0.476 0.104 0.952 0.162 1.428 1.138 8.407 5.552 15.697 11.902 19.754 5.033-5.648 7.349-13.853 6.215-22.232-0.081-0.46-0.163-0.925-0.246-1.385-3.232-0.087-6.474-0.916-9.502-2.433C30.948 47.088 28.088 48.72 24.973 49.64z" fill="#f5ff00" data-fill-palette-color="quaternary"></path><path d="M70.43 72.307c-0.165 0-0.336-0.026-0.503-0.079-0.887-0.277-1.38-1.221-1.103-2.11 1.02-3.264 3.712-5.878 7.022-6.822 0.895-0.267 1.826 0.265 2.08 1.156 0.256 0.895-0.261 1.826-1.156 2.08-2.233 0.639-4.048 2.399-4.734 4.593C71.812 71.845 71.148 72.307 70.43 72.307z" fill="#f5ff00" data-fill-palette-color="quaternary"></path><path d="M91.089 87.598c-0.438 0-0.875-0.169-1.205-0.507L71.45 68.201c-0.649-0.665-0.637-1.732 0.03-2.38 0.663-0.647 1.73-0.637 2.381 0.029L92.294 84.74c0.649 0.665 0.637 1.732-0.029 2.381C91.938 87.439 91.514 87.598 91.089 87.598z" fill="#f5ff00" data-fill-palette-color="quaternary"></path></g></svg></g></svg></g><g></g></svg></g></svg></g></svg></g></svg></g><defs></defs></svg><rect width="333.90454557049503" height="333.90454557049503" fill="none" stroke="none" visibility="hidden"></rect></g></svg></g></svg>